<svg xmlns="http://www.w3.org/2000/svg" width="208" height="56" viewBox="0 0 208 56" shape-rendering="crispEdges">
  <g fill="#FF7AC4">
    <!-- A -->
    <rect x="8" y="0" width="8" height="8" />
    <rect x="16" y="0" width="8" height="8" />
    <rect x="24" y="0" width="8" height="8" />
    <rect x="0" y="8" width="8" height="8" />
    <rect x="32" y="8" width="8" height="8" />
    <rect x="0" y="16" width="8" height="8" />
    <rect x="32" y="16" width="8" height="8" />
    <rect x="0" y="24" width="8" height="8" />
    <rect x="8" y="24" width="8" height="8" />
    <rect x="16" y="24" width="8" height="8" />
    <rect x="24" y="24" width="8" height="8" />
    <rect x="32" y="24" width="8" height="8" />
    <rect x="0" y="32" width="8" height="8" />
    <rect x="32" y="32" width="8" height="8" />
    <rect x="0" y="40" width="8" height="8" />
    <rect x="32" y="40" width="8" height="8" />
    <rect x="0" y="48" width="8" height="8" />
    <rect x="32" y="48" width="8" height="8" />

    <!-- R -->
    <rect x="56" y="0" width="8" height="8" />
    <rect x="64" y="0" width="8" height="8" />
    <rect x="72" y="0" width="8" height="8" />
    <rect x="80" y="0" width="8" height="8" />
    <rect x="48" y="8" width="8" height="8" />
    <rect x="88" y="8" width="8" height="8" />
    <rect x="48" y="16" width="8" height="8" />
    <rect x="88" y="16" width="8" height="8" />
    <rect x="48" y="24" width="8" height="8" />
    <rect x="56" y="24" width="8" height="8" />
    <rect x="64" y="24" width="8" height="8" />
    <rect x="72" y="24" width="8" height="8" />
    <rect x="80" y="24" width="8" height="8" />
    <rect x="48" y="32" width="8" height="8" />
    <rect x="80" y="32" width="8" height="8" />
    <rect x="48" y="40" width="8" height="8" />
    <rect x="72" y="40" width="8" height="8" />
    <rect x="48" y="48" width="8" height="8" />
    <rect x="88" y="48" width="8" height="8" />

    <!-- Y -->
    <rect x="104" y="0" width="8" height="8" />
    <rect x="128" y="0" width="8" height="8" />
    <rect x="112" y="8" width="8" height="8" />
    <rect x="120" y="8" width="8" height="8" />
    <rect x="120" y="16" width="8" height="8" />
    <rect x="120" y="24" width="8" height="8" />
    <rect x="120" y="32" width="8" height="8" />
    <rect x="120" y="40" width="8" height="8" />
    <rect x="120" y="48" width="8" height="8" />

    <!-- A (again) -->
    <rect x="168" y="0" width="8" height="8" />
    <rect x="176" y="0" width="8" height="8" />
    <rect x="184" y="0" width="8" height="8" />
    <rect x="160" y="8" width="8" height="8" />
    <rect x="192" y="8" width="8" height="8" />
    <rect x="160" y="16" width="8" height="8" />
    <rect x="192" y="16" width="8" height="8" />
    <rect x="160" y="24" width="8" height="8" />
    <rect x="168" y="24" width="8" height="8" />
    <rect x="176" y="24" width="8" height="8" />
    <rect x="184" y="24" width="8" height="8" />
    <rect x="192" y="24" width="8" height="8" />
    <rect x="160" y="32" width="8" height="8" />
    <rect x="192" y="32" width="8" height="8" />
    <rect x="160" y="40" width="8" height="8" />
    <rect x="192" y="40" width="8" height="8" />
    <rect x="160" y="48" width="8" height="8" />
    <rect x="192" y="48" width="8" height="8" />
  </g>
</svg>
